Coordinates
version=1
nRows=19
nColumns=36
inDegrees=yes

Units are S.I. units (second, meters, Newtons, ...)
If the header above contains a line with 'inDegrees', this indicates whether rotational values are in degrees (yes) or radians (no).

endheader
time	pelvis_tilt	pelvis_list	pelvis_rotation	pelvis_tx	pelvis_ty	pelvis_tz	hip_flexion_r	hip_adduction_r	hip_rotation_r	knee_angle_r	knee_angle_r_beta	ankle_angle_r	subtalar_angle_r	mtp_angle_r	hip_flexion_l	hip_adduction_l	hip_rotation_l	knee_angle_l	knee_angle_l_beta	ankle_angle_l	subtalar_angle_l	mtp_angle_l	lumbar_extension	lumbar_bending	lumbar_rotation	arm_flex_r	arm_add_r	arm_rot_r	elbow_flex_r	pro_sup_r	arm_flex_l	arm_add_l	arm_rot_l	elbow_flex_l	pro_sup_l
      0.39000000	      0.34842281	     -0.23019483	      2.73188404	      0.33238073	      1.16085162	     -0.19351303	     -1.68057201	      4.61827161	     -6.26542299	      6.55636041	      0.11443008	     10.59944367	      2.76915981	     -6.04955834	     27.13255674	     -0.74499171	     -3.44545040	     28.00296029	      0.48874386	     -5.50686779	     -8.89791552	     -6.04955834	    -11.29275672	      5.86273685	      1.58887147	     -6.15403613	     -9.99050875	    -14.01993524	     50.79331417	    110.24031436	    -13.03623731	     -2.64952519	    -12.51103530	     54.68010056	    108.77877201
      0.40000000	      0.23087445	     -0.44345182	      2.62117269	      0.34188278	      1.15946538	     -0.19333306	     -2.15611961	      4.92674855	     -5.90204990	      6.41437446	      0.11195195	     10.93797030	      2.62702848	     -6.06118880	     27.18258117	     -0.81090590	     -3.46742093	     25.26948929	      0.44103579	     -5.36955632	     -7.95383137	     -6.06118880	    -11.19453988	      6.03388840	      1.53009348	     -5.91239380	    -10.08502869	    -13.96167272	     51.26485925	    110.28704871	    -12.95742254	     -2.67960935	    -12.58161068	     54.58641914	    108.78061434
      0.41000000	      0.24806482	     -0.59124196	      2.52127099	      0.35159466	      1.15819957	     -0.19313791	     -2.82492517	      5.17818603	     -5.51955969	      6.20540160	      0.10830469	     11.35762199	      2.34887044	     -6.07653915	     27.02666101	     -0.84210420	     -3.68089992	     22.57079471	      0.39393468	     -5.13437630	     -6.86953674	     -6.07653915	    -11.25548720	      6.11771078	      1.48131057	     -5.73571977	    -10.17113026	    -13.86331685	     51.72356863	    110.33677138	    -12.83275410	     -2.71109152	    -12.66171727	     54.36723395	    108.79452357
      0.42000000	      0.20792513	     -0.78756938	      2.42400182	      0.36129072	      1.15673717	     -0.19296692	     -3.40272285	      5.46762362	     -5.14499274	      6.05589635	      0.10569533	     11.70590756	      2.10718124	     -6.09071210	     26.93732896	     -0.90661898	     -3.85095756	     20.00945348	      0.34923084	     -4.84937234	     -5.84099262	     -6.09071210	    -11.24104776	      6.24348430	      1.42279578	     -5.53772189	    -10.23127379	    -13.75633685	     52.17287123	    110.38024830	    -12.71179762	     -2.74385072	    -12.70904475	     54.13618134	    108.81813125
      0.43000000	      0.14480178	     -0.97664205	      2.34071659	      0.37103256	      1.15519210	     -0.19280682	     -3.94313780	      5.74057651	     -4.79270290	      5.93761759	      0.10363098	     12.05262209	      1.87683959	     -6.10393200	     26.85165309	     -0.95647179	     -4.05288597	     17.55136175	      0.30632905	     -4.51825414	     -4.82819401	     -6.10393200	    -11.20295931	      6.36397411	      1.34079564	     -5.37710658	    -10.29100183	    -13.63877335	     52.59234178	    110.41804716	    -12.57974050	     -2.78964005	    -12.74983672	     53.85141204	    108.83641862
      0.44000000	      0.06494589	     -1.15792767	      2.25410095	      0.38088618	      1.15357499	     -0.19264524	     -4.46170116	      5.99352412	     -4.48942651	      5.83995561	      0.10192645	     12.39463479	      1.67680058	     -6.11596795	     26.77679742	     -0.99739208	     -4.28938695	     15.24022310	      0.26599207	     -4.14515330	     -3.84099401	     -6.11596795	    -11.14619101	      6.45909536	      1.25838289	     -5.23779356	    -10.31885152	    -13.50995403	     52.98025068	    110.45133116	    -12.44902561	     -2.82384282	    -12.77806347	     53.52880375	    108.84435078
      0.45000000	      0.02654583	     -1.29045576	      2.16589908	      0.39085482	      1.15200056	     -0.19250202	     -5.03139938	      6.18566267	     -4.18908920	      5.75256961	      0.10040128	     12.75777789	      1.49267325	     -6.12930049	     26.62500003	     -0.99256178	     -4.58959541	     13.04029802	      0.22759614	     -3.71955636	     -2.73964318	     -6.12930049	    -11.11004608	      6.48966086	      1.19009399	     -5.13950721	    -10.34408685	    -13.36657110	     53.34176590	    110.48208220	    -12.27347350	     -2.86280497	    -12.80559500	     53.14705225	    108.84323302
      0.46000000	      0.18271515	     -1.39280827	      2.05506295	      0.40104109	      1.15066985	     -0.19230064	     -5.86113777	      6.35071558	     -3.85582350	      5.58761742	      0.09752232	     13.05990507	      1.31135898	     -6.16801526	     26.29484337	     -1.02612370	     -5.37731046	     11.09987733	      0.19372941	     -2.94109400	     -1.09133283	     -6.16801526	    -11.30329020	      6.48117078	      1.20064749	     -5.08810430	    -10.35261392	    -13.28438766	     53.71628907	    110.49914539	    -12.05177972	     -2.94071193	    -12.72925342	     52.70400922	    108.88760064
      0.47000000	     -0.04290307	     -1.55428435	      1.96779291	      0.41105106	      1.14877633	     -0.19222986	     -6.14608368	      6.53690690	     -3.67992745	      5.66436437	      0.09886181	     13.36552779	      1.23428682	     -6.17776995	     26.36955682	     -1.01370635	     -5.57928597	      9.28291322	      0.16201740	     -2.61699134	     -0.29000298	     -6.17776995	    -11.08043613	      6.52583248	      1.06979682	     -5.00452379	    -10.32126184	    -13.18802007	     54.01703421	    110.52342077	    -11.97521785	     -2.96583947	    -12.79498982	     52.38888589	    108.86645903
      0.48000000	     -0.12828855	     -1.68227405	      1.88566990	      0.42126251	      1.14706995	     -0.19216113	     -6.60740261	      6.68832186	     -3.55954647	      5.70833449	      0.09962923	     13.72203724	      1.16663534	     -6.18704170	     26.30111790	     -0.98580969	     -5.93353974	      7.68430536	      0.13411643	     -2.27291378	      0.51559913	     -6.18704170	    -10.99146169	      6.53375416	      0.96987781	     -4.95505952	    -10.30182555	    -13.07075377	     54.26736818	    110.54772462	    -11.84637019	     -2.97772457	    -12.86703184	     52.00636636	    108.83668678
      0.49000000	     -0.04617423	     -1.71323769	      1.79596339	      0.43159666	      1.14560882	     -0.19210952	     -7.26334630	      6.73533775	     -3.39176088	      5.75953155	      0.10052279	     14.15651599	      1.16121625	     -6.20198314	     26.02150754	     -0.88432122	     -6.39213138	      6.25018432	      0.10908630	     -1.87516488	      1.68042959	     -6.20198314	    -11.11333047	      6.41205758	      0.95211648	     -4.95807666	    -10.28867906	    -12.91752462	     54.50264377	    110.57698171	    -11.60110501	     -2.98281196	    -12.96361450	     51.51785545	    108.80493634
      0.50000000	     -0.10472099	     -1.85004370	      1.71916672	      0.44191456	      1.14391001	     -0.19207571	     -7.70674175	      6.88427229	     -3.32865053	      5.89661697	      0.10291538	     14.38605204	      1.14527694	     -6.20964583	     26.00933892	     -0.87804471	     -6.80361647	      5.23146365	      0.09130627	     -1.51471865	      2.21061525	     -6.20964583	    -11.09087532	      6.41163990	      0.81127568	     -4.91581342	    -10.21984888	    -12.86379950	     54.70751337	    110.59670586	    -11.52998823	     -2.99423246	    -13.01701634	     51.22561127	    108.78810689
      0.51000000	     -0.03967323	     -1.88464313	      1.64082394	      0.45236282	      1.14242587	     -0.19206589	     -8.26874773	      6.91783115	     -3.20124752	      6.09795577	      0.10642941	     14.74854472	      1.10719089	     -6.22015857	     25.80671715	     -0.78510906	     -7.15261497	      4.33447151	      0.07565080	     -1.14866939	      3.01617287	     -6.22015857	    -11.18820690	      6.28731629	      0.75326229	     -4.93542968	    -10.18299554	    -12.76397448	     54.89518784	    110.62537255	    -11.32718962	     -3.01519552	    -13.16708754	     50.78893487	    108.75882560
      0.52000000	      0.14922539	     -1.88991618	      1.58078245	      0.46293289	      1.14111164	     -0.19210337	     -8.97513103	      6.92590793	     -3.12643471	      6.27102461	      0.10945003	     15.11302989	      1.14563121	     -6.24071017	     25.57917770	     -0.69522337	     -7.76488693	      3.89012410	      0.06789547	     -0.64265483	      3.99701552	     -6.24071017	    -11.46230273	      6.12730181	      0.76798881	     -5.01870267	    -10.10457347	    -12.68334661	     55.04113077	    110.66542635	    -11.04613040	     -2.97862482	    -13.33340633	     50.35606855	    108.76318473
      0.53000000	      0.08260712	     -2.01284383	      1.60168916	      0.47352177	      1.13941598	     -0.19215111	     -9.36817584	      7.07212921	     -3.08157669	      6.49223624	      0.11331090	     15.12917959	      1.13585204	     -6.24218310	     25.69699293	     -0.67811140	     -7.87956374	      3.76248575	      0.06566776	     -0.54666309	      4.00224778	     -6.24218310	    -11.41454564	      6.06872242	      0.64620251	     -5.12574568	     -9.98056921	    -12.65350577	     55.04809289	    110.67007512	    -11.01809712	     -2.99503399	    -13.34817972	     50.29575089	    108.76090731
      0.54000000	      0.19406309	     -2.03192406	      1.48227336	      0.48422018	      1.13804141	     -0.19216647	     -9.83334444	      7.06745492	     -3.02990083	      6.99345809	      0.12205887	     15.49136037	      0.88511641	     -6.25297256	     25.52797307	     -0.63235338	     -8.12961429	      3.72093445	      0.06494256	     -0.09768545	      4.25339026	     -6.25297256	    -11.60757927	      5.92376038	      0.54233046	     -5.13891764	     -9.89344868	    -12.57453762	     55.17768989	    110.70481326	    -10.87042534	     -2.96335575	    -13.54618277	     49.81164542	    108.73549771
      0.55000000	      0.25302789	     -2.07714344	      1.44129022	      0.49507358	      1.13663569	     -0.19226018	    -10.26974027	      7.10220458	     -2.93328070	      7.43052008	      0.12968704	     15.59245975	      0.78113986	     -6.25912953	     25.47909256	     -0.59740562	     -8.18129508	      4.01922934	      0.07014879	      0.06640593	      4.29111943	     -6.25912953	    -11.71825143	      5.77843622	      0.47150438	     -5.24946855	     -9.78209838	    -12.51157346	     55.17918592	    110.72331529	    -10.78511900	     -2.96554118	    -13.64624375	     49.59169443	    108.72770480
      0.56000000	      0.34649442	     -2.11350562	      1.37871536	      0.50614699	      1.13529246	     -0.19232789	    -10.69355671	      7.11948727	     -2.89327083	      7.98622919	      0.13938599	     15.77135347	      0.54921314	     -6.27141166	     25.40580234	     -0.58532014	     -8.30014307	      4.58230998	      0.07997640	      0.39847632	      4.22876934	     -6.27141166	    -11.83787523	      5.62829200	      0.44981606	     -5.40946620	     -9.70282430	    -12.41752508	     55.15146766	    110.75905522	    -10.67920217	     -2.94967572	    -13.82432797	     49.26933686	    108.72509641
      0.57000000	      0.44897397	     -2.14145392	      1.30321358	      0.51732864	      1.13401513	     -0.19239996	    -11.09385762	      7.11656999	     -2.81141490	      8.61108225	      0.15029174	     15.81685778	      0.37244070	     -6.27834265	     25.29866339	     -0.57619654	     -8.19238822	      5.31879393	      0.09283047	      0.56978394	      4.05533642	     -6.27834265	    -11.98188365	      5.45154629	      0.42141554	     -5.56864137	     -9.58586932	    -12.33288841	     55.06847622	    110.77865165	    -10.62161975	     -2.93936409	    -13.92385096	     49.06200453	    108.71997163
